<!-- collapse.svg -->
<svg viewBox="0 0 24 24" fill="none" xmlns="http://www.w3.org/2000/svg" id="Angle-Double-Up--Streamline-Unicons" height="24" width="24">
  <path d="M13.5966 13.1591c-0.2071 -0.2089 -0.4536 -0.3747 -0.7254 -0.4879 -0.2717 -0.1133 -0.563 -0.1715 -0.8573 -0.1715s-0.5855 0.0582 -0.8572 0.1715c-0.2715 0.1132 -0.5181 0.279 -0.7254 0.4879l-6.6871 6.6871c-0.4315 0.4198 -0.6787 0.9937 -0.687 1.5958 -0.0084 0.6018 0.2227 1.1825 0.6425 1.6141 0.4197 0.4315 0.9937 0.6787 1.5956 0.6869 0.602 0.0085 1.1826 -0.2226 1.6142 -0.6424l5.1044 -5.2159 5.1046 5.2159c0.2073 0.2089 0.4538 0.3747 0.7253 0.488 0.2717 0.1132 0.563 0.1714 0.8573 0.1714s0.5855 -0.0582 0.8573 -0.1714c0.2717 -0.1133 0.5182 -0.2791 0.7253 -0.488 0.2089 -0.2073 0.3747 -0.4538 0.4879 -0.7253 0.1133 -0.2717 0.1714 -0.563 0.1714 -0.8573s-0.0581 -0.5855 -0.1714 -0.8573c-0.1132 -0.2715 -0.279 -0.518 -0.4879 -0.7253l-6.6871 -6.7763Zm-6.6871 -2.4074 5.1044 -5.1268 5.1046 5.1268c0.2073 0.2089 0.4538 0.3747 0.7253 0.488 0.2717 0.1132 0.563 0.1714 0.8573 0.1714s0.5855 -0.0582 0.8573 -0.1714c0.2717 -0.1133 0.5182 -0.2791 0.7253 -0.488 0.2089 -0.2073 0.3747 -0.4538 0.4879 -0.7253 0.1133 -0.2717 0.1714 -0.5631 0.1714 -0.8573s-0.0581 -0.5856 -0.1714 -0.8573c-0.1132 -0.2715 -0.279 -0.518 -0.4879 -0.7253L13.5966 0.8994c-0.2071 -0.209 -0.4537 -0.3748 -0.7254 -0.488 -0.2717 -0.1131 -0.563 -0.1714 -0.8573 -0.1714s-0.5855 0.0583 -0.8573 0.1714c-0.2715 0.1132 -0.518 0.279 -0.7253 0.488L3.7442 7.5865c-0.4197 0.4197 -0.6555 0.989 -0.6555 1.5826s0.2358 1.1629 0.6555 1.5826c0.4198 0.4198 0.9891 0.6556 1.5826 0.6556s1.1629 -0.2358 1.5827 -0.6556Z" fill="#7a7a7a" stroke-width="1"></path>
</svg>