<!-- expand.svg -->
<svg viewBox="0 0 24 24" fill="none" xmlns="http://www.w3.org/2000/svg" id="Angle-Double-Down--Streamline-Unicons" height="24" width="24">
  <path d="M10.4221 10.7917c0.2067 0.2082 0.4525 0.3736 0.7231 0.4865 0.2709 0.1128 0.5614 0.1708 0.8547 0.1708s0.5838 -0.058 0.8547 -0.1708c0.2709 -0.1129 0.5166 -0.2783 0.7231 -0.4865l6.6666 -6.6666c0.2131 -0.2072 0.3831 -0.4543 0.5006 -0.7272s0.1802 -0.5664 0.1845 -0.8636c0.004 -0.2971 -0.0505 -0.5921 -0.1603 -0.8682 -0.11 -0.2761 -0.2731 -0.5279 -0.4804 -0.7409 -0.2071 -0.2131 -0.4542 -0.3832 -0.7273 -0.5007 -0.2729 -0.1175 -0.5662 -0.1801 -0.8633 -0.1843 -0.2974 -0.0041 -0.5923 0.0503 -0.8685 0.1602 -0.276 0.1099 -0.5277 0.2731 -0.7409 0.4803l-5.0888 5.2 -5.0888 -5.2C6.4809 0.4623 5.902 0.2319 5.3019 0.2402c-0.6001 0.0084 -1.1723 0.2547 -1.5907 0.685 -0.4185 0.4302 -0.6489 1.0091 -0.6405 1.6092 0.0083 0.6001 0.2547 1.1723 0.6849 1.5907l6.6666 6.6666Zm6.6666 2.4 -5.0888 5.111 -5.0888 -5.111c-0.4302 -0.4185 -1.0091 -0.6489 -1.6092 -0.6405 -0.6001 0.0083 -1.1723 0.2547 -1.5907 0.6849 -0.4185 0.4302 -0.6489 1.0091 -0.6405 1.6091 0.0083 0.6002 0.2547 1.1724 0.6849 1.5909l6.6665 6.6666c0.2067 0.2082 0.4525 0.3735 0.7231 0.4864 0.2709 0.1129 0.5614 0.1709 0.8547 0.1709s0.5838 -0.058 0.8547 -0.1709c0.2709 -0.1129 0.5166 -0.2782 0.7231 -0.4864l6.6666 -6.6666c0.4184 -0.4185 0.6535 -0.986 0.6535 -1.5778s-0.2351 -1.1593 -0.6535 -1.5777c-0.4185 -0.4185 -0.986 -0.6536 -1.5778 -0.6536s-1.1593 0.2351 -1.5778 0.6536v-0.0889Z" fill="#7a7a7a" stroke-width="1"></path>
</svg>