<!-- save.svg -->
<svg xmlns="http://www.w3.org/2000/svg" fill="none" viewBox="0 0 24 24" stroke-linecap="round" stroke-linejoin="round" stroke="#7a7a7a" id="Save--Streamline-Mynaui" height="24" width="24">
  <path d="M16.25 21v-4.765a1.59 1.59 0 0 0 -1.594 -1.588H9.344a1.59 1.59 0 0 0 -1.594 1.588V21m8.5 -17.715v2.362a1.59 1.59 0 0 1 -1.594 1.588H9.344A1.59 1.59 0 0 1 7.75 5.647V3m8.5 0.285A3.196 3.196 0 0 0 14.93 3H7.75m8.5 0.285c0.344 0.156 0.661 0.374 0.934 0.645l2.382 2.375A3.17 3.17 0 0 1 20.5 8.55v9.272A3.182 3.182 0 0 1 17.313 21H6.688A3.182 3.182 0 0 1 3.5 17.823V6.176A3.182 3.182 0 0 1 6.688 3H7.75" stroke-width="1.5"></path>
</svg>